<svg id="visual" viewBox="0 0 1000 200" width="1000" height="200" xmlns="http://www.w3.org/2000/svg" xmlns:xlink="http://www.w3.org/1999/xlink" version="1.1"><g stroke-width="1" stroke-linejoin="bevel"><path d="M467.6 133L424.8 178L452.6 181Z" fill="#933de2" stroke="#933de2"></path><path d="M424.8 178L413.8 200L452.6 181Z" fill="#7e22ce" stroke="#7e22ce"></path><path d="M467.6 133L377.8 125L424.8 178Z" fill="#8f38de" stroke="#8f38de"></path><path d="M424.8 178L351.9 143L413.8 200Z" fill="#a855f7" stroke="#a855f7"></path><path d="M413.8 200L498.6 200L452.6 181Z" fill="#8b33da" stroke="#8b33da"></path><path d="M452.6 181L498.6 200L467.6 133Z" fill="#a450f3" stroke="#a450f3"></path><path d="M377.8 125L351.9 143L424.8 178Z" fill="#7e22ce" stroke="#7e22ce"></path><path d="M377.8 125L351.9 136L351.9 143Z" fill="#a855f7" stroke="#a855f7"></path><path d="M467.6 133L425.8 57L377.8 125Z" fill="#862ed6" stroke="#862ed6"></path><path d="M377.8 125L312.1 98L351.9 136Z" fill="#9b47ea" stroke="#9b47ea"></path><path d="M498.6 200L542.4 135L467.6 133Z" fill="#862ed6" stroke="#862ed6"></path><path d="M467.6 133L437.6 44L425.8 57Z" fill="#7e22ce" stroke="#7e22ce"></path><path d="M546.4 62L437.6 44L467.6 133Z" fill="#8f38de" stroke="#8f38de"></path><path d="M316.1 75L312.1 98L377.8 125Z" fill="#9b47ea" stroke="#9b47ea"></path><path d="M282.1 142L341.9 200L351.9 143Z" fill="#a04cef" stroke="#a04cef"></path><path d="M351.9 143L341.9 200L413.8 200Z" fill="#a450f3" stroke="#a450f3"></path><path d="M498.6 200L548.2 183L542.4 135Z" fill="#862ed6" stroke="#862ed6"></path><path d="M498.6 200L542.4 200L548.2 183Z" fill="#862ed6" stroke="#862ed6"></path><path d="M542.4 200L561.2 200L548.2 183Z" fill="#a04cef" stroke="#a04cef"></path><path d="M548.2 183L608.2 136L542.4 135Z" fill="#7e22ce" stroke="#7e22ce"></path><path d="M608.2 136L546.4 62L542.4 135Z" fill="#a04cef" stroke="#a04cef"></path><path d="M542.4 135L546.4 62L467.6 133Z" fill="#933de2" stroke="#933de2"></path><path d="M316.1 75L377.8 125L425.8 57Z" fill="#a450f3" stroke="#a450f3"></path><path d="M351.9 136L282.1 142L351.9 143Z" fill="#a450f3" stroke="#a450f3"></path><path d="M337.9 10L316.1 75L425.8 57Z" fill="#7e22ce" stroke="#7e22ce"></path><path d="M494.4 0L446.6 0L437.6 44Z" fill="#a04cef" stroke="#a04cef"></path><path d="M437.6 44L383.9 0L425.8 57Z" fill="#a450f3" stroke="#a450f3"></path><path d="M250.3 139L282.1 142L235.3 86Z" fill="#a855f7" stroke="#a855f7"></path><path d="M312.1 98L282.1 142L351.9 136Z" fill="#a04cef" stroke="#a04cef"></path><path d="M546.4 62L494.4 0L437.6 44Z" fill="#8f38de" stroke="#8f38de"></path><path d="M546.4 62L539.4 24L494.4 0Z" fill="#8228d2" stroke="#8228d2"></path><path d="M446.6 0L383.9 0L437.6 44Z" fill="#a855f7" stroke="#a855f7"></path><path d="M383.9 0L376.8 0L425.8 57Z" fill="#8f38de" stroke="#8f38de"></path><path d="M561.2 200L608.2 136L548.2 183Z" fill="#a450f3" stroke="#a450f3"></path><path d="M546.4 62L595.2 0L539.4 24Z" fill="#8f38de" stroke="#8f38de"></path><path d="M376.8 0L337.9 10L425.8 57Z" fill="#933de2" stroke="#933de2"></path><path d="M235.3 86L282.1 142L312.1 98Z" fill="#9b47ea" stroke="#9b47ea"></path><path d="M631.1 200L621.1 122L608.2 136Z" fill="#7e22ce" stroke="#7e22ce"></path><path d="M608.2 136L621.1 122L546.4 62Z" fill="#8f38de" stroke="#8f38de"></path><path d="M282.1 142L262.3 200L341.9 200Z" fill="#a450f3" stroke="#a450f3"></path><path d="M250.3 139L262.1 200L262.3 200Z" fill="#a855f7" stroke="#a855f7"></path><path d="M251.3 60L312.1 98L316.1 75Z" fill="#862ed6" stroke="#862ed6"></path><path d="M282.1 142L250.3 139L262.3 200Z" fill="#a450f3" stroke="#a450f3"></path><path d="M561.2 200L631.1 200L608.2 136Z" fill="#8b33da" stroke="#8b33da"></path><path d="M258.1 0L251.3 60L316.1 75Z" fill="#8b33da" stroke="#8b33da"></path><path d="M622.2 11L595.2 0L546.4 62Z" fill="#7e22ce" stroke="#7e22ce"></path><path d="M539.4 24L595.2 0L494.4 0Z" fill="#a04cef" stroke="#a04cef"></path><path d="M251.3 60L235.3 86L312.1 98Z" fill="#8228d2" stroke="#8228d2"></path><path d="M250.3 139L179.5 200L262.1 200Z" fill="#862ed6" stroke="#862ed6"></path><path d="M658.1 86L649.1 76L621.1 122Z" fill="#8f38de" stroke="#8f38de"></path><path d="M621.1 122L649.1 76L546.4 62Z" fill="#8f38de" stroke="#8f38de"></path><path d="M739.7 141L658.1 86L621.1 122Z" fill="#933de2" stroke="#933de2"></path><path d="M649.1 76L622.2 11L546.4 62Z" fill="#862ed6" stroke="#862ed6"></path><path d="M638.1 0L622.2 11L649.1 76Z" fill="#8b33da" stroke="#8b33da"></path><path d="M376.8 0L258.1 0L337.9 10Z" fill="#9742e6" stroke="#9742e6"></path><path d="M337.9 10L258.1 0L316.1 75Z" fill="#862ed6" stroke="#862ed6"></path><path d="M251.3 60L155.5 11L235.3 86Z" fill="#a450f3" stroke="#a450f3"></path><path d="M258.1 0L249.3 0L251.3 60Z" fill="#7e22ce" stroke="#7e22ce"></path><path d="M708.9 24L638.1 0L649.1 76Z" fill="#862ed6" stroke="#862ed6"></path><path d="M622.2 11L638.1 0L595.2 0Z" fill="#8228d2" stroke="#8228d2"></path><path d="M155.5 11L186.5 117L235.3 86Z" fill="#9b47ea" stroke="#9b47ea"></path><path d="M235.3 86L186.5 117L250.3 139Z" fill="#933de2" stroke="#933de2"></path><path d="M186.5 117L179.5 200L250.3 139Z" fill="#8228d2" stroke="#8228d2"></path><path d="M631.1 200L705.9 200L621.1 122Z" fill="#933de2" stroke="#933de2"></path><path d="M658.1 86L708.9 24L649.1 76Z" fill="#a855f7" stroke="#a855f7"></path><path d="M186.5 117L147.5 165L179.5 200Z" fill="#a04cef" stroke="#a04cef"></path><path d="M123.6 153L147.5 165L186.5 117Z" fill="#a04cef" stroke="#a04cef"></path><path d="M735.9 70L708.9 24L658.1 86Z" fill="#933de2" stroke="#933de2"></path><path d="M739.7 141L736.7 113L658.1 86Z" fill="#8b33da" stroke="#8b33da"></path><path d="M739.7 141L621.1 122L705.9 200Z" fill="#862ed6" stroke="#862ed6"></path><path d="M743.9 170L739.7 141L705.9 200Z" fill="#9742e6" stroke="#9742e6"></path><path d="M733.7 200L743.9 170L705.9 200Z" fill="#9742e6" stroke="#9742e6"></path><path d="M767.7 0L735.9 70L802.5 56Z" fill="#a04cef" stroke="#a04cef"></path><path d="M767.7 0L704.9 0L708.9 24Z" fill="#a855f7" stroke="#a855f7"></path><path d="M708.9 24L704.9 0L638.1 0Z" fill="#933de2" stroke="#933de2"></path><path d="M735.9 70L736.7 113L795.7 75Z" fill="#862ed6" stroke="#862ed6"></path><path d="M736.7 113L735.9 70L658.1 86Z" fill="#933de2" stroke="#933de2"></path><path d="M147.5 165L128.6 200L179.5 200Z" fill="#8228d2" stroke="#8228d2"></path><path d="M104.6 90L123.6 153L186.5 117Z" fill="#8228d2" stroke="#8228d2"></path><path d="M147.5 165L123.6 153L128.6 200Z" fill="#8228d2" stroke="#8228d2"></path><path d="M249.3 0L155.5 11L251.3 60Z" fill="#8f38de" stroke="#8f38de"></path><path d="M249.3 0L149.5 0L155.5 11Z" fill="#8b33da" stroke="#8b33da"></path><path d="M155.5 11L104.6 90L186.5 117Z" fill="#9742e6" stroke="#9742e6"></path><path d="M97.8 88L104.6 90L89.6 79Z" fill="#9742e6" stroke="#9742e6"></path><path d="M123.6 153L75.8 200L128.6 200Z" fill="#8b33da" stroke="#8b33da"></path><path d="M89.6 79L104.6 90L155.5 11Z" fill="#a04cef" stroke="#a04cef"></path><path d="M104.6 90L97.8 88L123.6 153Z" fill="#7e22ce" stroke="#7e22ce"></path><path d="M795.7 75L736.7 113L739.7 141Z" fill="#9b47ea" stroke="#9b47ea"></path><path d="M735.9 70L767.7 0L708.9 24Z" fill="#a04cef" stroke="#a04cef"></path><path d="M91.6 0L89.6 79L155.5 11Z" fill="#a04cef" stroke="#a04cef"></path><path d="M51.8 166L75.8 200L123.6 153Z" fill="#a04cef" stroke="#a04cef"></path><path d="M733.7 200L802.5 181L743.9 170Z" fill="#7e22ce" stroke="#7e22ce"></path><path d="M743.9 170L802.5 181L739.7 141Z" fill="#8f38de" stroke="#8f38de"></path><path d="M833.5 96L795.7 75L739.7 141Z" fill="#a450f3" stroke="#a450f3"></path><path d="M51.8 166L123.6 153L97.8 88Z" fill="#862ed6" stroke="#862ed6"></path><path d="M833.5 96L802.5 56L795.7 75Z" fill="#9b47ea" stroke="#9b47ea"></path><path d="M795.7 75L802.5 56L735.9 70Z" fill="#8f38de" stroke="#8f38de"></path><path d="M149.5 0L91.6 0L155.5 11Z" fill="#8228d2" stroke="#8228d2"></path><path d="M89.6 79L51.8 166L97.8 88Z" fill="#9742e6" stroke="#9742e6"></path><path d="M21.8 67L51.8 166L89.6 79Z" fill="#9742e6" stroke="#9742e6"></path><path d="M91.6 0L79.8 0L89.6 79Z" fill="#862ed6" stroke="#862ed6"></path><path d="M802.5 181L833.5 96L739.7 141Z" fill="#8228d2" stroke="#8228d2"></path><path d="M802.5 56L807.5 0L767.7 0Z" fill="#862ed6" stroke="#862ed6"></path><path d="M846.4 26L807.5 0L802.5 56Z" fill="#8228d2" stroke="#8228d2"></path><path d="M733.7 200L843.5 200L802.5 181Z" fill="#9b47ea" stroke="#9b47ea"></path><path d="M802.5 181L882.4 139L833.5 96Z" fill="#a450f3" stroke="#a450f3"></path><path d="M902.2 39L846.4 26L833.5 96Z" fill="#7e22ce" stroke="#7e22ce"></path><path d="M833.5 96L846.4 26L802.5 56Z" fill="#a450f3" stroke="#a450f3"></path><path d="M79.8 0L21.8 67L89.6 79Z" fill="#933de2" stroke="#933de2"></path><path d="M843.5 200L882.4 139L802.5 181Z" fill="#a04cef" stroke="#a04cef"></path><path d="M0 77L0 169L51.8 166Z" fill="#a04cef" stroke="#a04cef"></path><path d="M51.8 166L0 200L75.8 200Z" fill="#8228d2" stroke="#8228d2"></path><path d="M0 169L0 200L51.8 166Z" fill="#8b33da" stroke="#8b33da"></path><path d="M843.5 200L885.4 181L882.4 139Z" fill="#8228d2" stroke="#8228d2"></path><path d="M0 32L0 77L21.8 67Z" fill="#8228d2" stroke="#8228d2"></path><path d="M21.8 67L0 77L51.8 166Z" fill="#933de2" stroke="#933de2"></path><path d="M79.8 0L0 32L21.8 67Z" fill="#a04cef" stroke="#a04cef"></path><path d="M843.5 200L901.4 200L885.4 181Z" fill="#a855f7" stroke="#a855f7"></path><path d="M885.4 181L909.2 200L882.4 139Z" fill="#a04cef" stroke="#a04cef"></path><path d="M79.8 0L0 0L0 32Z" fill="#7e22ce" stroke="#7e22ce"></path><path d="M901.4 200L909.2 200L885.4 181Z" fill="#8b33da" stroke="#8b33da"></path><path d="M882.4 139L902.2 39L833.5 96Z" fill="#7e22ce" stroke="#7e22ce"></path><path d="M969.2 121L902.2 39L882.4 139Z" fill="#933de2" stroke="#933de2"></path><path d="M846.4 26L905.4 0L807.5 0Z" fill="#8f38de" stroke="#8f38de"></path><path d="M912.2 0L905.4 0L902.2 39Z" fill="#933de2" stroke="#933de2"></path><path d="M902.2 39L905.4 0L846.4 26Z" fill="#7e22ce" stroke="#7e22ce"></path><path d="M1000 12L912.2 0L902.2 39Z" fill="#862ed6" stroke="#862ed6"></path><path d="M909.2 200L969.2 121L882.4 139Z" fill="#9742e6" stroke="#9742e6"></path><path d="M909.2 200L978.2 185L969.2 121Z" fill="#8f38de" stroke="#8f38de"></path><path d="M1000 200L1000 184L978.2 185Z" fill="#933de2" stroke="#933de2"></path><path d="M978.2 185L1000 184L969.2 121Z" fill="#933de2" stroke="#933de2"></path><path d="M969.2 121L1000 105L902.2 39Z" fill="#862ed6" stroke="#862ed6"></path><path d="M1000 184L1000 105L969.2 121Z" fill="#9b47ea" stroke="#9b47ea"></path><path d="M909.2 200L1000 200L978.2 185Z" fill="#862ed6" stroke="#862ed6"></path><path d="M1000 105L1000 12L902.2 39Z" fill="#9742e6" stroke="#9742e6"></path><path d="M1000 12L1000 0L912.2 0Z" fill="#9742e6" stroke="#9742e6"></path></g></svg>