<svg id="visual" viewBox="0 0 900 600" width="900" height="600" xmlns="http://www.w3.org/2000/svg" xmlns:xlink="http://www.w3.org/1999/xlink" version="1.1"><g stroke-width="1" stroke-linejoin="bevel"><path d="M486 270L574 285L536 203Z" fill="#e9d5ff" stroke="#e9d5ff"></path><path d="M574 285L629 235L536 203Z" fill="#ddbeff" stroke="#ddbeff"></path><path d="M629 235L572 138L536 203Z" fill="#e3c8ff" stroke="#e3c8ff"></path><path d="M536 203L437 162L486 270Z" fill="#e1c5ff" stroke="#e1c5ff"></path><path d="M572 138L484 134L536 203Z" fill="#e3c8ff" stroke="#e3c8ff"></path><path d="M484 134L437 162L536 203Z" fill="#e7d2ff" stroke="#e7d2ff"></path><path d="M398 336L520 401L486 270Z" fill="#ddbeff" stroke="#ddbeff"></path><path d="M486 270L520 401L574 285Z" fill="#d8b4fe" stroke="#d8b4fe"></path><path d="M574 285L639 385L629 235Z" fill="#e9d5ff" stroke="#e9d5ff"></path><path d="M437 162L398 336L486 270Z" fill="#dab7fe" stroke="#dab7fe"></path><path d="M520 401L639 385L574 285Z" fill="#e7d2ff" stroke="#e7d2ff"></path><path d="M720 330L722 230L629 235Z" fill="#ddbeff" stroke="#ddbeff"></path><path d="M629 235L706 90L572 138Z" fill="#e1c5ff" stroke="#e1c5ff"></path><path d="M639 385L720 330L629 235Z" fill="#ddbeff" stroke="#ddbeff"></path><path d="M484 134L390 110L437 162Z" fill="#dfc2ff" stroke="#dfc2ff"></path><path d="M437 162L287 278L398 336Z" fill="#ddbeff" stroke="#ddbeff"></path><path d="M482 0L390 110L484 134Z" fill="#d8b4fe" stroke="#d8b4fe"></path><path d="M398 336L428 438L520 401Z" fill="#e1c5ff" stroke="#e1c5ff"></path><path d="M520 401L531 493L639 385Z" fill="#e4cbff" stroke="#e4cbff"></path><path d="M287 278L339 369L398 336Z" fill="#dfc2ff" stroke="#dfc2ff"></path><path d="M398 336L339 369L428 438Z" fill="#e7d2ff" stroke="#e7d2ff"></path><path d="M722 230L706 90L629 235Z" fill="#dfc2ff" stroke="#dfc2ff"></path><path d="M572 138L482 0L484 134Z" fill="#dab7fe" stroke="#dab7fe"></path><path d="M801 268L764 194L722 230Z" fill="#e3c8ff" stroke="#e3c8ff"></path><path d="M722 230L764 194L706 90Z" fill="#e1c5ff" stroke="#e1c5ff"></path><path d="M428 438L531 493L520 401Z" fill="#e3c8ff" stroke="#e3c8ff"></path><path d="M639 385L733 436L720 330Z" fill="#dfc2ff" stroke="#dfc2ff"></path><path d="M279 216L287 278L437 162Z" fill="#e6cfff" stroke="#e6cfff"></path><path d="M339 369L404 470L428 438Z" fill="#e1c5ff" stroke="#e1c5ff"></path><path d="M428 438L404 470L531 493Z" fill="#e6cfff" stroke="#e6cfff"></path><path d="M390 110L279 216L437 162Z" fill="#e1c5ff" stroke="#e1c5ff"></path><path d="M604 0L482 0L572 138Z" fill="#e3c8ff" stroke="#e3c8ff"></path><path d="M390 110L275 116L279 216Z" fill="#d8b4fe" stroke="#d8b4fe"></path><path d="M706 90L604 0L572 138Z" fill="#ddbeff" stroke="#ddbeff"></path><path d="M720 330L801 268L722 230Z" fill="#dab7fe" stroke="#dab7fe"></path><path d="M788 423L801 268L720 330Z" fill="#e4cbff" stroke="#e4cbff"></path><path d="M677 523L733 436L639 385Z" fill="#e3c8ff" stroke="#e3c8ff"></path><path d="M504 600L600 522L531 493Z" fill="#e9d5ff" stroke="#e9d5ff"></path><path d="M531 493L600 522L639 385Z" fill="#ddbeff" stroke="#ddbeff"></path><path d="M482 0L396 0L390 110Z" fill="#e9d5ff" stroke="#e9d5ff"></path><path d="M318 0L275 116L390 110Z" fill="#ddbeff" stroke="#ddbeff"></path><path d="M764 194L798 122L706 90Z" fill="#e4cbff" stroke="#e4cbff"></path><path d="M706 90L725 0L604 0Z" fill="#e6cfff" stroke="#e6cfff"></path><path d="M900 204L798 122L764 194Z" fill="#d8b4fe" stroke="#d8b4fe"></path><path d="M287 278L180 397L339 369Z" fill="#d8b4fe" stroke="#d8b4fe"></path><path d="M339 369L298 517L404 470Z" fill="#dab7fe" stroke="#dab7fe"></path><path d="M279 216L231 274L287 278Z" fill="#e6cfff" stroke="#e6cfff"></path><path d="M171 180L231 274L279 216Z" fill="#dab7fe" stroke="#dab7fe"></path><path d="M600 522L677 523L639 385Z" fill="#e6cfff" stroke="#e6cfff"></path><path d="M790 461L788 423L733 436Z" fill="#e7d2ff" stroke="#e7d2ff"></path><path d="M733 436L788 423L720 330Z" fill="#ddbeff" stroke="#ddbeff"></path><path d="M760 0L725 0L706 90Z" fill="#e9d5ff" stroke="#e9d5ff"></path><path d="M677 523L790 461L733 436Z" fill="#dab7fe" stroke="#dab7fe"></path><path d="M900 425L900 263L801 268Z" fill="#e9d5ff" stroke="#e9d5ff"></path><path d="M396 0L318 0L390 110Z" fill="#dcbbfe" stroke="#dcbbfe"></path><path d="M798 122L760 0L706 90Z" fill="#e3c8ff" stroke="#e3c8ff"></path><path d="M436 600L504 600L531 493Z" fill="#e1c5ff" stroke="#e1c5ff"></path><path d="M600 522L610 600L677 523Z" fill="#ddbeff" stroke="#ddbeff"></path><path d="M436 600L531 493L404 470Z" fill="#e7d2ff" stroke="#e7d2ff"></path><path d="M180 397L298 517L339 369Z" fill="#dfc2ff" stroke="#dfc2ff"></path><path d="M504 600L610 600L600 522Z" fill="#dab7fe" stroke="#dab7fe"></path><path d="M677 523L815 600L790 461Z" fill="#d8b4fe" stroke="#d8b4fe"></path><path d="M339 600L436 600L404 470Z" fill="#d8b4fe" stroke="#d8b4fe"></path><path d="M900 425L801 268L788 423Z" fill="#dfc2ff" stroke="#dfc2ff"></path><path d="M801 268L900 204L764 194Z" fill="#ddbeff" stroke="#ddbeff"></path><path d="M798 122L900 0L760 0Z" fill="#dcbbfe" stroke="#dcbbfe"></path><path d="M900 263L900 204L801 268Z" fill="#e1c5ff" stroke="#e1c5ff"></path><path d="M213 0L186 129L275 116Z" fill="#e4cbff" stroke="#e4cbff"></path><path d="M275 116L186 129L279 216Z" fill="#e1c5ff" stroke="#e1c5ff"></path><path d="M231 274L180 397L287 278Z" fill="#dab7fe" stroke="#dab7fe"></path><path d="M186 129L171 180L279 216Z" fill="#e1c5ff" stroke="#e1c5ff"></path><path d="M610 600L676 600L677 523Z" fill="#dcbbfe" stroke="#dcbbfe"></path><path d="M95 384L180 397L79 330Z" fill="#dcbbfe" stroke="#dcbbfe"></path><path d="M900 204L900 117L798 122Z" fill="#e9d5ff" stroke="#e9d5ff"></path><path d="M199 600L339 600L298 517Z" fill="#e6cfff" stroke="#e6cfff"></path><path d="M298 517L339 600L404 470Z" fill="#e4cbff" stroke="#e4cbff"></path><path d="M900 532L900 425L790 461Z" fill="#e9d5ff" stroke="#e9d5ff"></path><path d="M790 461L900 425L788 423Z" fill="#e9d5ff" stroke="#e9d5ff"></path><path d="M114 87L91 216L171 180Z" fill="#e1c5ff" stroke="#e1c5ff"></path><path d="M318 0L213 0L275 116Z" fill="#e4cbff" stroke="#e4cbff"></path><path d="M95 384L169 494L180 397Z" fill="#e4cbff" stroke="#e4cbff"></path><path d="M180 397L169 494L298 517Z" fill="#e7d2ff" stroke="#e7d2ff"></path><path d="M114 87L171 180L186 129Z" fill="#e3c8ff" stroke="#e3c8ff"></path><path d="M171 180L91 216L231 274Z" fill="#e9d5ff" stroke="#e9d5ff"></path><path d="M900 117L900 0L798 122Z" fill="#ddbeff" stroke="#ddbeff"></path><path d="M676 600L815 600L677 523Z" fill="#dfc2ff" stroke="#dfc2ff"></path><path d="M213 0L114 87L186 129Z" fill="#e4cbff" stroke="#e4cbff"></path><path d="M79 330L180 397L231 274Z" fill="#dab7fe" stroke="#dab7fe"></path><path d="M815 600L900 532L790 461Z" fill="#e9d5ff" stroke="#e9d5ff"></path><path d="M91 216L79 330L231 274Z" fill="#d8b4fe" stroke="#d8b4fe"></path><path d="M169 494L199 600L298 517Z" fill="#e3c8ff" stroke="#e3c8ff"></path><path d="M122 513L199 600L169 494Z" fill="#e6cfff" stroke="#e6cfff"></path><path d="M0 429L122 513L95 384Z" fill="#e1c5ff" stroke="#e1c5ff"></path><path d="M95 384L122 513L169 494Z" fill="#e7d2ff" stroke="#e7d2ff"></path><path d="M815 600L900 600L900 532Z" fill="#dcbbfe" stroke="#dcbbfe"></path><path d="M114 87L0 188L91 216Z" fill="#e9d5ff" stroke="#e9d5ff"></path><path d="M91 216L0 323L79 330Z" fill="#d8b4fe" stroke="#d8b4fe"></path><path d="M213 0L74 0L114 87Z" fill="#ddbeff" stroke="#ddbeff"></path><path d="M0 90L0 188L114 87Z" fill="#ddbeff" stroke="#ddbeff"></path><path d="M79 330L0 323L95 384Z" fill="#e4cbff" stroke="#e4cbff"></path><path d="M0 188L0 323L91 216Z" fill="#e6cfff" stroke="#e6cfff"></path><path d="M74 0L0 90L114 87Z" fill="#e7d2ff" stroke="#e7d2ff"></path><path d="M0 323L0 429L95 384Z" fill="#d8b4fe" stroke="#d8b4fe"></path><path d="M122 513L62 600L199 600Z" fill="#e4cbff" stroke="#e4cbff"></path><path d="M0 506L62 600L122 513Z" fill="#e6cfff" stroke="#e6cfff"></path><path d="M0 429L0 506L122 513Z" fill="#e3c8ff" stroke="#e3c8ff"></path><path d="M74 0L0 0L0 90Z" fill="#ddbeff" stroke="#ddbeff"></path><path d="M0 506L0 600L62 600Z" fill="#ddbeff" stroke="#ddbeff"></path></g></svg>