<svg xmlns="http://www.w3.org/2000/svg" width="114" height="84" viewBox="0 0 114 84" fill="none">
<path d="M83.25 24V21.375C83.25 9.60938 65.5312 0.75 42 0.75C18.4688 0.75 0.75 9.60938 0.75 21.375V40.125C0.75 49.9219 13.0312 57.7031 30.75 60.0469V62.625C30.75 74.3906 48.4688 83.25 72 83.25C95.5312 83.25 113.25 74.3906 113.25 62.625V43.875C113.25 34.1719 101.344 26.3906 83.25 24ZM30.75 52.4062V41.2969C34.4807 41.7763 38.2387 42.0112 42 42C45.7613 42.0112 49.5193 41.7763 53.25 41.2969V52.4062C49.5284 52.9862 45.7665 53.2683 42 53.25C38.2335 53.2683 34.4716 52.9862 30.75 52.4062ZM75.75 33.5156V40.125C75.75 44.0625 69.9375 48.2812 60.75 50.8594V39.8906C66.7969 38.4375 71.9062 36.2344 75.75 33.5156ZM8.25 40.125V33.5156C12.0938 36.2344 17.2031 38.4375 23.25 39.8906V50.8594C14.0625 48.2812 8.25 44.0625 8.25 40.125ZM38.25 62.625V60.6562L42 60.75C43.8438 60.75 45.625 60.7031 47.3438 60.6094C49.2188 61.2656 51.1875 61.8281 53.25 62.3437V73.3594C44.0625 70.7812 38.25 66.5625 38.25 62.625ZM60.75 74.9062V63.75C64.4802 64.2394 68.2379 64.4899 72 64.5C75.7613 64.5112 79.5193 64.2763 83.25 63.7969V74.9062C75.7922 76.0312 68.2078 76.0312 60.75 74.9062ZM90.75 73.3594V62.3906C96.7969 60.9375 101.906 58.7344 105.75 56.0156V62.625C105.75 66.5625 99.9375 70.7812 90.75 73.3594Z" fill="#FBBF24"/>
</svg>