<svg width="56" height="56" viewBox="0 0 56 56" fill="none" xmlns="http://www.w3.org/2000/svg">
<path d="M56 28C56 43.464 43.464 56 28 56C12.536 56 0 43.464 0 28C0 12.536 12.536 0 28 0C43.464 0 56 12.536 56 28Z" fill="#E9D5FF"/>
<path d="M34.25 30.3521C34.25 30.6673 34.1565 30.9755 33.9814 31.2376C33.8063 31.4997 33.5574 31.7039 33.2662 31.8246C32.9749 31.9452 32.6545 31.9767 32.3453 31.9153C32.0362 31.8538 31.7522 31.702 31.5293 31.4791C31.3064 31.2562 31.1546 30.9722 31.0931 30.663C31.0316 30.3539 31.0632 30.0334 31.1838 29.7422C31.3045 29.451 31.5087 29.2021 31.7708 29.027C32.0329 28.8518 32.341 28.7584 32.6563 28.7584C33.0789 28.7584 33.4843 28.9263 33.7832 29.2252C34.0821 29.5241 34.25 29.9294 34.25 30.3521ZM23.0938 28.7584C22.7785 28.7584 22.4704 28.8518 22.2083 29.027C21.9462 29.2021 21.742 29.451 21.6213 29.7422C21.5007 30.0334 21.4691 30.3539 21.5306 30.663C21.5921 30.9722 21.7439 31.2562 21.9668 31.4791C22.1897 31.702 22.4737 31.8538 22.7828 31.9153C23.092 31.9767 23.4124 31.9452 23.7037 31.8246C23.9949 31.7039 24.2438 31.4997 24.4189 31.2376C24.594 30.9755 24.6875 30.6673 24.6875 30.3521C24.6875 29.9294 24.5196 29.5241 24.2207 29.2252C23.9218 28.9263 23.5164 28.7584 23.0938 28.7584ZM42.75 20.2584V30.8834C42.7465 33.4184 41.7379 35.8486 39.9453 37.6412C38.1528 39.4338 35.7226 40.4424 33.1875 40.4459H22.5625C20.0275 40.4424 17.5972 39.4338 15.8047 37.6412C14.0121 35.8486 13.0035 33.4184 13 30.8834V20.2584C12.998 19.2225 13.3743 18.2215 14.0584 17.4436C14.7424 16.6657 15.687 16.1644 16.7146 16.0339C17.7423 15.9034 18.7822 16.1527 19.6389 16.735C20.4957 17.3172 21.1103 18.1924 21.3672 19.1959H34.3828C34.6398 18.1924 35.2543 17.3172 36.1111 16.735C36.9679 16.1527 38.0078 15.9034 39.0354 16.0339C40.063 16.1644 41.0076 16.6657 41.6917 17.4436C42.3757 18.2215 42.752 19.2225 42.75 20.2584ZM37.4375 29.8209C37.4375 28.6937 36.9897 27.6127 36.1927 26.8157C35.3957 26.0186 34.3147 25.5709 33.1875 25.5709H22.5625C21.4353 25.5709 20.3543 26.0186 19.5573 26.8157C18.7603 27.6127 18.3125 28.6937 18.3125 29.8209V30.8834C18.3125 32.0105 18.7603 33.0916 19.5573 33.8886C20.3543 34.6856 21.4353 35.1334 22.5625 35.1334H33.1875C34.3147 35.1334 35.3957 34.6856 36.1927 33.8886C36.9897 33.0916 37.4375 32.0105 37.4375 30.8834V29.8209Z" fill="#A855F7"/>
</svg>
