<svg id="visual" viewBox="0 0 900 600" width="900" height="600" xmlns="http://www.w3.org/2000/svg" xmlns:xlink="http://www.w3.org/1999/xlink" version="1.1"><path d="M0 25L75 26C150 27 300 29 450 32C600 35 750 39 825 41L900 43L900 0L825 0C750 0 600 0 450 0C300 0 150 0 75 0L0 0Z" fill="#c68cfb"></path><path d="M0 97L75 94C150 91 300 85 450 85C600 85 750 91 825 94L900 97L900 41L825 39C750 37 600 33 450 30C300 27 150 25 75 24L0 23Z" fill="#c182fa"></path><path d="M0 133L75 129C150 125 300 117 450 118C600 119 750 129 825 134L900 139L900 95L825 92C750 89 600 83 450 83C300 83 150 89 75 92L0 95Z" fill="#bc79fa"></path><path d="M0 169L75 165C150 161 300 153 450 154C600 155 750 165 825 170L900 175L900 137L825 132C750 127 600 117 450 116C300 115 150 123 75 127L0 131Z" fill="#b66ff9"></path><path d="M0 187L75 185C150 183 300 179 450 180C600 181 750 187 825 190L900 193L900 173L825 168C750 163 600 153 450 152C300 151 150 159 75 163L0 167Z" fill="#b165f8"></path><path d="M0 205L75 205C150 205 300 205 450 206C600 207 750 209 825 210L900 211L900 191L825 188C750 185 600 179 450 178C300 177 150 181 75 183L0 185Z" fill="#ab5af7"></path><path d="M0 301L75 308C150 315 300 329 450 329C600 329 750 315 825 308L900 301L900 209L825 208C750 207 600 205 450 204C300 203 150 203 75 203L0 203Z" fill="#a452f1"></path><path d="M0 361L75 370C150 379 300 397 450 395C600 393 750 371 825 360L900 349L900 299L825 306C750 313 600 327 450 327C300 327 150 313 75 306L0 299Z" fill="#9b4de6"></path><path d="M0 385L75 393C150 401 300 417 450 415C600 413 750 393 825 383L900 373L900 347L825 358C750 369 600 391 450 393C300 395 150 377 75 368L0 359Z" fill="#9348db"></path><path d="M0 439L75 443C150 447 300 455 450 449C600 443 750 423 825 413L900 403L900 371L825 381C750 391 600 411 450 413C300 415 150 399 75 391L0 383Z" fill="#8b42d0"></path><path d="M0 571L75 573C150 575 300 579 450 581C600 583 750 583 825 583L900 583L900 401L825 411C750 421 600 441 450 447C300 453 150 445 75 441L0 437Z" fill="#833dc6"></path><path d="M0 601L75 601C150 601 300 601 450 601C600 601 750 601 825 601L900 601L900 581L825 581C750 581 600 581 450 579C300 577 150 573 75 571L0 569Z" fill="#7b38bb"></path></svg>