<svg id="visual" viewBox="0 0 900 600" width="900" height="600" xmlns="http://www.w3.org/2000/svg" xmlns:xlink="http://www.w3.org/1999/xlink" version="1.1"><path d="M0 169L37.5 167C75 165 150 161 225 158C300 155 375 153 450 141C525 129 600 107 675 102C750 97 825 109 862.5 115L900 121L900 0L862.5 0C825 0 750 0 675 0C600 0 525 0 450 0C375 0 300 0 225 0C150 0 75 0 37.5 0L0 0Z" fill="#d3acff"></path><path d="M0 223L37.5 218C75 213 150 203 225 201C300 199 375 205 450 195C525 185 600 159 675 149C750 139 825 145 862.5 148L900 151L900 119L862.5 113C825 107 750 95 675 100C600 105 525 127 450 139C375 151 300 153 225 156C150 159 75 163 37.5 165L0 167Z" fill="#cea1fe"></path><path d="M0 253L37.5 251C75 249 150 245 225 247C300 249 375 257 450 247C525 237 600 209 675 197C750 185 825 189 862.5 191L900 193L900 149L862.5 146C825 143 750 137 675 147C600 157 525 183 450 193C375 203 300 197 225 199C150 201 75 211 37.5 216L0 221Z" fill="#c895fe"></path><path d="M0 379L37.5 381C75 383 150 387 225 393C300 399 375 407 450 407C525 407 600 399 675 382C750 365 825 339 862.5 326L900 313L900 191L862.5 189C825 187 750 183 675 195C600 207 525 235 450 245C375 255 300 247 225 245C150 243 75 247 37.5 249L0 251Z" fill="#c38afd"></path><path d="M0 469L37.5 467C75 465 150 461 225 467C300 473 375 489 450 491C525 493 600 481 675 467C750 453 825 437 862.5 429L900 421L900 311L862.5 324C825 337 750 363 675 380C600 397 525 405 450 405C375 405 300 397 225 391C150 385 75 381 37.5 379L0 377Z" fill="#bc7ff9"></path><path d="M0 511L37.5 511C75 511 150 511 225 514C300 517 375 523 450 524C525 525 600 521 675 512C750 503 825 489 862.5 482L900 475L900 419L862.5 427C825 435 750 451 675 465C600 479 525 491 450 489C375 487 300 471 225 465C150 459 75 463 37.5 465L0 467Z" fill="#b375f3"></path><path d="M0 553L37.5 550C75 547 150 541 225 542C300 543 375 551 450 553C525 555 600 551 675 546C750 541 825 535 862.5 532L900 529L900 473L862.5 480C825 487 750 501 675 510C600 519 525 523 450 522C375 521 300 515 225 512C150 509 75 509 37.5 509L0 509Z" fill="#aa6aec"></path><path d="M0 601L37.5 601C75 601 150 601 225 601C300 601 375 601 450 601C525 601 600 601 675 601C750 601 825 601 862.5 601L900 601L900 527L862.5 530C825 533 750 539 675 544C600 549 525 553 450 551C375 549 300 541 225 540C150 539 75 545 37.5 548L0 551Z" fill="#a160e6"></path></svg>