<svg id="visual" viewBox="0 0 900 600" width="900" height="600" xmlns="http://www.w3.org/2000/svg" xmlns:xlink="http://www.w3.org/1999/xlink" version="1.1"><g stroke-width="1" stroke-linejoin="bevel"><path d="M385 325L326 420L422 383Z" fill="#a855f7" stroke="#a855f7"></path><path d="M326 420L405 460L422 383Z" fill="#b46dfa" stroke="#b46dfa"></path><path d="M405 460L462 387L422 383Z" fill="#be7ffc" stroke="#be7ffc"></path><path d="M422 383L462 387L385 325Z" fill="#b268f9" stroke="#b268f9"></path><path d="M385 325L278 270L326 420Z" fill="#b976fb" stroke="#b976fb"></path><path d="M167 394L265 480L326 420Z" fill="#be7ffc" stroke="#be7ffc"></path><path d="M326 420L265 480L405 460Z" fill="#be7ffc" stroke="#be7ffc"></path><path d="M278 270L225 298L326 420Z" fill="#aa5af8" stroke="#aa5af8"></path><path d="M439 600L468 521L405 460Z" fill="#ad5ff8" stroke="#ad5ff8"></path><path d="M405 460L468 521L462 387Z" fill="#b46dfa" stroke="#b46dfa"></path><path d="M597 401L537 320L462 387Z" fill="#b672fa" stroke="#b672fa"></path><path d="M462 387L537 320L385 325Z" fill="#bb7bfb" stroke="#bb7bfb"></path><path d="M385 325L400 200L278 270Z" fill="#be7ffc" stroke="#be7ffc"></path><path d="M478 222L400 200L385 325Z" fill="#b268f9" stroke="#b268f9"></path><path d="M278 270L203 187L225 298Z" fill="#b976fb" stroke="#b976fb"></path><path d="M537 320L478 222L385 325Z" fill="#b268f9" stroke="#b268f9"></path><path d="M225 298L167 394L326 420Z" fill="#b268f9" stroke="#b268f9"></path><path d="M167 394L226 525L265 480Z" fill="#be7ffc" stroke="#be7ffc"></path><path d="M282 600L439 600L405 460Z" fill="#b268f9" stroke="#b268f9"></path><path d="M400 200L260 172L278 270Z" fill="#c084fc" stroke="#c084fc"></path><path d="M67 271L65 423L167 394Z" fill="#b672fa" stroke="#b672fa"></path><path d="M468 521L597 401L462 387Z" fill="#a855f7" stroke="#a855f7"></path><path d="M537 320L584 295L478 222Z" fill="#be7ffc" stroke="#be7ffc"></path><path d="M282 600L405 460L265 480Z" fill="#b672fa" stroke="#b672fa"></path><path d="M468 521L638 476L597 401Z" fill="#c084fc" stroke="#c084fc"></path><path d="M597 401L584 295L537 320Z" fill="#b976fb" stroke="#b976fb"></path><path d="M226 525L282 600L265 480Z" fill="#b268f9" stroke="#b268f9"></path><path d="M260 172L203 187L278 270Z" fill="#bb7bfb" stroke="#bb7bfb"></path><path d="M125 600L238 600L226 525Z" fill="#bb7bfb" stroke="#bb7bfb"></path><path d="M226 525L238 600L282 600Z" fill="#a855f7" stroke="#a855f7"></path><path d="M400 200L272 137L260 172Z" fill="#be7ffc" stroke="#be7ffc"></path><path d="M260 172L187 136L203 187Z" fill="#c084fc" stroke="#c084fc"></path><path d="M399 76L272 137L400 200Z" fill="#ad5ff8" stroke="#ad5ff8"></path><path d="M439 600L499 600L468 521Z" fill="#bb7bfb" stroke="#bb7bfb"></path><path d="M65 423L127 518L167 394Z" fill="#aa5af8" stroke="#aa5af8"></path><path d="M167 394L127 518L226 525Z" fill="#a855f7" stroke="#a855f7"></path><path d="M584 295L600 227L478 222Z" fill="#be7ffc" stroke="#be7ffc"></path><path d="M478 222L492 123L400 200Z" fill="#b46dfa" stroke="#b46dfa"></path><path d="M682 263L600 227L584 295Z" fill="#b46dfa" stroke="#b46dfa"></path><path d="M600 227L492 123L478 222Z" fill="#aa5af8" stroke="#aa5af8"></path><path d="M594 600L638 476L468 521Z" fill="#aa5af8" stroke="#aa5af8"></path><path d="M597 401L684 408L584 295Z" fill="#ad5ff8" stroke="#ad5ff8"></path><path d="M272 137L187 136L260 172Z" fill="#bb7bfb" stroke="#bb7bfb"></path><path d="M67 271L167 394L225 298Z" fill="#b268f9" stroke="#b268f9"></path><path d="M279 0L187 136L272 137Z" fill="#be7ffc" stroke="#be7ffc"></path><path d="M67 271L225 298L93 208Z" fill="#ad5ff8" stroke="#ad5ff8"></path><path d="M492 123L399 76L400 200Z" fill="#b976fb" stroke="#b976fb"></path><path d="M93 208L225 298L203 187Z" fill="#b672fa" stroke="#b672fa"></path><path d="M499 600L594 600L468 521Z" fill="#be7ffc" stroke="#be7ffc"></path><path d="M714 471L684 408L638 476Z" fill="#bb7bfb" stroke="#bb7bfb"></path><path d="M638 476L684 408L597 401Z" fill="#b46dfa" stroke="#b46dfa"></path><path d="M187 136L93 208L203 187Z" fill="#b46dfa" stroke="#b46dfa"></path><path d="M127 518L125 600L226 525Z" fill="#a855f7" stroke="#a855f7"></path><path d="M0 600L125 600L127 518Z" fill="#be7ffc" stroke="#be7ffc"></path><path d="M684 408L682 263L584 295Z" fill="#bb7bfb" stroke="#bb7bfb"></path><path d="M600 227L629 111L492 123Z" fill="#bb7bfb" stroke="#bb7bfb"></path><path d="M665 600L714 471L638 476Z" fill="#af64f9" stroke="#af64f9"></path><path d="M772 298L714 224L682 263Z" fill="#bb7bfb" stroke="#bb7bfb"></path><path d="M0 264L0 366L67 271Z" fill="#ad5ff8" stroke="#ad5ff8"></path><path d="M67 271L0 366L65 423Z" fill="#af64f9" stroke="#af64f9"></path><path d="M65 423L0 478L127 518Z" fill="#b46dfa" stroke="#b46dfa"></path><path d="M594 600L665 600L638 476Z" fill="#bb7bfb" stroke="#bb7bfb"></path><path d="M678 117L629 111L600 227Z" fill="#aa5af8" stroke="#aa5af8"></path><path d="M492 123L415 0L399 76Z" fill="#b976fb" stroke="#b976fb"></path><path d="M0 366L0 478L65 423Z" fill="#aa5af8" stroke="#aa5af8"></path><path d="M772 298L682 263L684 408Z" fill="#b672fa" stroke="#b672fa"></path><path d="M682 263L714 224L600 227Z" fill="#b976fb" stroke="#b976fb"></path><path d="M538 0L415 0L492 123Z" fill="#b672fa" stroke="#b672fa"></path><path d="M399 76L279 0L272 137Z" fill="#b268f9" stroke="#b268f9"></path><path d="M93 208L0 264L67 271Z" fill="#ad5ff8" stroke="#ad5ff8"></path><path d="M0 172L0 264L93 208Z" fill="#aa5af8" stroke="#aa5af8"></path><path d="M415 0L279 0L399 76Z" fill="#be7ffc" stroke="#be7ffc"></path><path d="M187 136L103 89L93 208Z" fill="#b672fa" stroke="#b672fa"></path><path d="M179 0L103 89L187 136Z" fill="#aa5af8" stroke="#aa5af8"></path><path d="M714 224L678 117L600 227Z" fill="#c084fc" stroke="#c084fc"></path><path d="M629 111L538 0L492 123Z" fill="#b46dfa" stroke="#b46dfa"></path><path d="M784 395L772 298L684 408Z" fill="#af64f9" stroke="#af64f9"></path><path d="M714 224L801 190L678 117Z" fill="#af64f9" stroke="#af64f9"></path><path d="M591 0L538 0L629 111Z" fill="#a855f7" stroke="#a855f7"></path><path d="M823 479L784 395L714 471Z" fill="#af64f9" stroke="#af64f9"></path><path d="M714 471L784 395L684 408Z" fill="#aa5af8" stroke="#aa5af8"></path><path d="M0 123L0 172L93 208Z" fill="#b46dfa" stroke="#b46dfa"></path><path d="M279 0L179 0L187 136Z" fill="#af64f9" stroke="#af64f9"></path><path d="M103 89L0 123L93 208Z" fill="#a855f7" stroke="#a855f7"></path><path d="M0 478L0 600L127 518Z" fill="#aa5af8" stroke="#aa5af8"></path><path d="M702 0L591 0L629 111Z" fill="#b46dfa" stroke="#b46dfa"></path><path d="M0 0L0 123L103 89Z" fill="#be7ffc" stroke="#be7ffc"></path><path d="M179 0L120 0L103 89Z" fill="#b976fb" stroke="#b976fb"></path><path d="M665 600L771 600L714 471Z" fill="#a855f7" stroke="#a855f7"></path><path d="M771 600L823 479L714 471Z" fill="#b976fb" stroke="#b976fb"></path><path d="M900 269L801 190L772 298Z" fill="#a855f7" stroke="#a855f7"></path><path d="M772 298L801 190L714 224Z" fill="#af64f9" stroke="#af64f9"></path><path d="M678 117L702 0L629 111Z" fill="#b268f9" stroke="#b268f9"></path><path d="M900 380L772 298L784 395Z" fill="#be7ffc" stroke="#be7ffc"></path><path d="M813 72L702 0L678 117Z" fill="#b672fa" stroke="#b672fa"></path><path d="M120 0L0 0L103 89Z" fill="#bb7bfb" stroke="#bb7bfb"></path><path d="M900 463L900 380L823 479Z" fill="#be7ffc" stroke="#be7ffc"></path><path d="M823 479L900 380L784 395Z" fill="#c084fc" stroke="#c084fc"></path><path d="M900 600L900 463L823 479Z" fill="#a855f7" stroke="#a855f7"></path><path d="M900 179L813 72L801 190Z" fill="#be7ffc" stroke="#be7ffc"></path><path d="M801 190L813 72L678 117Z" fill="#ad5ff8" stroke="#ad5ff8"></path><path d="M900 380L900 269L772 298Z" fill="#b672fa" stroke="#b672fa"></path><path d="M900 269L900 179L801 190Z" fill="#aa5af8" stroke="#aa5af8"></path><path d="M771 600L900 600L823 479Z" fill="#c084fc" stroke="#c084fc"></path><path d="M900 0L825 0L813 72Z" fill="#b268f9" stroke="#b268f9"></path><path d="M813 72L825 0L702 0Z" fill="#bb7bfb" stroke="#bb7bfb"></path><path d="M900 179L900 88L813 72Z" fill="#b268f9" stroke="#b268f9"></path><path d="M900 88L900 0L813 72Z" fill="#b46dfa" stroke="#b46dfa"></path></g></svg>